<?xml version="1.0" encoding="utf-8"?>
<!-- Generator: Adobe Illustrator 26.0.1, SVG Export Plug-In . SVG Version: 6.00 Build 0)  -->
<svg version="1.1" id="Ebene_1" xmlns="http://www.w3.org/2000/svg" xmlns:xlink="http://www.w3.org/1999/xlink" x="0px" y="0px"
	 viewBox="0 0 200 200" style="enable-background:new 0 0 200 200;" xml:space="preserve">
<style type="text/css">
	.st0{fill:#6BFFC3;}
</style>
<path class="st0" d="M45.79,100.14c-7.02-1.88-14.76-1.09-21.56,2.83c-13.59,7.84-18.25,25.22-10.4,38.81
	c7.84,13.59,25.21,18.25,38.81,10.41c6.79-3.92,11.35-10.23,13.24-17.25l7.32-27.28L45.79,100.14z"/>
<path class="st0" d="M140.27,3.83c-15.69,0-28.41,12.72-28.41,28.41c0,7.84,3.19,14.95,8.32,20.09l19.97,19.97l20.21-19.97
	c5.14-5.14,8.32-12.25,8.32-20.09C168.69,16.55,155.97,3.83,140.27,3.83z"/>
<path class="st0" d="M176,116.03c-6.79-3.92-14.53-4.73-21.55-2.84l-27.29,7.31l7.19,27.49c1.88,7.02,6.44,13.33,13.23,17.25
	c13.59,7.85,30.97,3.2,38.81-10.39C194.25,141.26,189.6,123.88,176,116.03z"/>
<path class="st0" d="M100.5,69.83h21.4c0,2.2-0.09,4.2-0.27,6c-0.18,1.8-0.55,3.46-1.1,5c-0.77,2.16-1.81,4.08-3.13,5.75
	c-1.32,1.67-2.87,3.06-4.65,4.18c-1.78,1.12-3.73,1.97-5.86,2.56c-2.13,0.59-4.36,0.88-6.71,0.88c-3.23,0-6.17-0.53-8.83-1.6
	c-2.66-1.06-4.94-2.56-6.85-4.48c-1.91-1.92-3.39-4.23-4.46-6.93s-1.59-5.67-1.59-8.94c0-3.23,0.52-6.19,1.57-8.88
	c1.04-2.69,2.53-5,4.46-6.9c1.92-1.91,4.24-3.39,6.96-4.46c2.71-1.06,5.74-1.59,9.07-1.59c4.33,0,8.12,0.93,11.39,2.8
	c3.26,1.87,5.85,4.77,7.75,8.69l-10.23,4.24c-0.95-2.27-2.19-3.91-3.71-4.9c-1.52-0.99-3.25-1.49-5.2-1.49
	c-1.61,0-3.08,0.3-4.4,0.91c-1.32,0.6-2.45,1.47-3.38,2.58c-0.93,1.12-1.67,2.47-2.2,4.04c-0.53,1.58-0.8,3.34-0.8,5.28
	c0,1.76,0.23,3.39,0.69,4.89c0.46,1.5,1.15,2.81,2.06,3.91c0.92,1.1,2.05,1.95,3.41,2.56c1.36,0.61,2.93,0.91,4.73,0.91
	c1.06,0,2.09-0.12,3.08-0.36c0.99-0.24,1.88-0.62,2.67-1.15c0.79-0.53,1.44-1.22,1.95-2.06s0.86-1.87,1.04-3.08h-8.86V69.83z"/>
<path class="st0" d="M105.56,99.17v41.47H94.78V99.17H105.56z"/>
<path class="st0" d="M77.21,173.39c0-3.08,0.57-5.95,1.71-8.61c1.14-2.66,2.71-4.98,4.73-6.96c2.02-1.98,4.43-3.53,7.23-4.65
	c2.8-1.12,5.89-1.68,9.27-1.68c3.34,0,6.42,0.56,9.24,1.68c2.82,1.12,5.25,2.67,7.29,4.65c2.04,1.98,3.62,4.3,4.76,6.96
	c1.14,2.66,1.71,5.53,1.71,8.61s-0.57,5.95-1.71,8.61c-1.14,2.66-2.72,4.98-4.76,6.96c-2.04,1.98-4.46,3.53-7.29,4.65
	c-2.82,1.12-5.9,1.68-9.24,1.68c-3.37,0-6.46-0.56-9.27-1.68c-2.81-1.12-5.22-2.67-7.23-4.65c-2.02-1.98-3.59-4.3-4.73-6.96
	C77.78,179.34,77.21,176.47,77.21,173.39z M88.49,173.39c0,1.65,0.31,3.17,0.93,4.57c0.62,1.39,1.47,2.6,2.53,3.63
	c1.06,1.03,2.3,1.82,3.71,2.39c1.41,0.57,2.91,0.85,4.48,0.85c1.58,0,3.07-0.28,4.48-0.85c1.41-0.57,2.66-1.37,3.74-2.39
	c1.08-1.03,1.93-2.24,2.56-3.63c0.62-1.39,0.93-2.92,0.93-4.57c0-1.65-0.31-3.17-0.93-4.56c-0.62-1.39-1.48-2.6-2.56-3.63
	c-1.08-1.03-2.33-1.82-3.74-2.39c-1.41-0.57-2.91-0.85-4.48-0.85c-1.58,0-3.07,0.28-4.48,0.85c-1.41,0.57-2.65,1.37-3.71,2.39
	c-1.06,1.03-1.91,2.24-2.53,3.63C88.8,170.22,88.49,171.74,88.49,173.39z"/>
</svg>
