<?xml version="1.0" encoding="utf-8"?>
<!-- Generator: Adobe Illustrator 26.0.1, SVG Export Plug-In . SVG Version: 6.00 Build 0)  -->
<svg version="1.1" id="Layer_1" xmlns="http://www.w3.org/2000/svg" xmlns:xlink="http://www.w3.org/1999/xlink" x="0px" y="0px"
	 viewBox="0 0 554.4 554.4" style="enable-background:new 0 0 554.4 554.4;" xml:space="preserve">
<style type="text/css">
	.st0{fill:#FFFFFF;}
</style>
<path class="st0" d="M113.08,391.15c0.01,2.17-0.42,4.32-1.28,6.31c-1.67,3.9-4.78,7.01-8.69,8.66c-4.05,1.71-8.61,1.71-12.66,0
	c-3.91-1.65-7.02-4.76-8.69-8.66c-0.86-1.99-1.3-4.14-1.28-6.31v-48.89H64.24v48.89c-0.03,4.36,0.84,8.69,2.55,12.7
	c3.3,7.79,9.5,13.99,17.29,17.29c8.12,3.4,17.27,3.4,25.39,0c3.87-1.65,7.39-4.03,10.36-7c2.98-2.96,5.36-6.47,7-10.33
	c1.71-4.01,2.59-8.34,2.56-12.7v-48.85h-16.3L113.08,391.15z"/>
<polygon class="st0" points="198.17,395.92 166.77,342.25 149.33,342.25 149.33,423.69 165.63,423.69 165.63,370.08 197.04,423.69 
	214.47,423.69 214.47,342.25 198.17,342.25 "/>
<rect x="235.39" y="342.26" class="st0" width="16.3" height="81.44"/>
<polygon class="st0" points="266.08,358.56 290.56,358.56 290.56,423.69 306.8,423.69 306.8,358.56 331.23,358.56 331.23,342.25 
	266.08,342.25 "/>
<path class="st0" d="M397.92,351.8c-2.97-2.98-6.49-5.35-10.36-7c-8.12-3.4-17.27-3.4-25.39,0c-3.87,1.64-7.38,4.02-10.34,7
	c-2.95,2.98-5.31,6.5-6.95,10.36c-1.72,4.01-2.59,8.33-2.56,12.69v48.84h16.24V407.4h32.6v16.29h16.3v-48.84
	c0.03-4.36-0.84-8.68-2.55-12.69C403.26,358.29,400.89,354.78,397.92,351.8z M391.16,391.15h-32.6v-16.3
	c-0.01-2.18,0.43-4.33,1.28-6.33c1.64-3.92,4.77-7.05,8.69-8.69c4.05-1.71,8.62-1.71,12.67,0c1.94,0.82,3.7,2.01,5.19,3.49
	c1.49,1.49,2.67,3.26,3.49,5.2c0.86,2,1.29,4.15,1.28,6.33V391.15z"/>
<path class="st0" d="M475.35,407.08c-3.23,1.38-6.71,2.09-10.22,2.08c-3.48,0.02-6.93-0.67-10.13-2.05
	c-6.2-2.64-11.15-7.57-13.8-13.77c-1.37-3.16-2.07-6.56-2.05-10c-0.02-3.47,0.68-6.9,2.05-10.08c1.3-3.08,3.19-5.88,5.56-8.24
	c2.38-2.34,5.17-4.22,8.24-5.54c3.2-1.36,6.64-2.04,10.11-2c3.51-0.01,6.99,0.7,10.22,2.07c3.21,1.35,6.1,3.37,8.46,5.94l8.63-14.2
	c-3.74-3.27-8.05-5.82-12.72-7.53c-4.67-1.72-9.61-2.59-14.59-2.58c-3.77-0.01-7.53,0.49-11.16,1.5
	c-14.32,3.99-25.51,15.18-29.48,29.51c-2,7.32-2,15.03,0,22.35c0.99,3.5,2.42,6.86,4.26,10c3.69,6.26,8.91,11.47,15.17,15.16
	c3.16,1.87,6.56,3.32,10.1,4.3c13.46,3.7,27.87,0.48,38.47-8.6l-8.63-14.2C481.46,403.75,478.57,405.75,475.35,407.08z"/>
<rect x="302.51" y="235.39" class="st0" width="6.65" height="10.06"/>
<rect x="302.51" y="254.35" class="st0" width="6.65" height="10.06"/>
<rect x="302.51" y="273.3" class="st0" width="6.65" height="10.06"/>
<path class="st0" d="M429.05,305.05l4.5-6c0.61-0.82,1.77-0.98,2.59-0.37c0.1,0.08,0.2,0.16,0.28,0.26c0.58,0.68,0.6,1.67,0.05,2.37
	l-5.2,6.95c-0.55,0.72-0.84,1.6-0.84,2.51c0,4.05,0,10.67,0,17.33h5.25c0-15.11,0-20.51,0-22.43c0.01-0.67,0.23-1.33,0.63-1.87
	l1.27-1.69c1.08-1.43,0.8-3.46-0.63-4.54c-0.01-0.01-0.02-0.01-0.03-0.02c-0.36-0.28-10.54-13.45-10.54-13.45
	c-0.94-1.25-0.69-3.03,0.57-3.96s3.03-0.69,3.96,0.57l6.9,9.22c2.05,2.74,5.94,3.29,8.68,1.24c0.47-0.35,0.89-0.77,1.24-1.24
	l6.91-9.22c0.94-1.25,2.71-1.5,3.96-0.57s1.5,2.71,0.57,3.96l-8,10.72c-0.83,1.11-1.28,2.46-1.28,3.85c0,6.76,0,18.31,0,29.43h31.12
	c-1.53-81.74-68.49-147.77-150.59-147.77s-149.06,66-150.58,147.77h24.76v-16.79c-7.8-1.05-13.27-8.22-12.22-16.02
	s8.22-13.27,16.02-12.22c7.8,1.05,13.27,8.22,12.22,16.02c-0.86,6.36-5.86,11.37-12.22,12.22v16.78h24.7V319
	c-5.82-0.56-11.09-3.64-14.45-8.42c7.36-6.67,7.92-18.03,1.27-25.4c4.01-6.58,8.57-12.81,13.63-18.62c0.67-0.8,1.86-0.91,2.66-0.24
	c0.09,0.07,0.17,0.15,0.24,0.24c12.31,14.59,18.5,25.33,18.5,32.58c-0.02,10.24-7.77,18.81-17.95,19.86v9.14h25.53V269.7h22.91
	v-50.85h40.87v50.85h40.87v23.36h23.36v35h11.17c0-6.48,0-23.38,0-29.43c0.01-1.39-0.44-2.74-1.28-3.85l-8-10.72
	c-0.94-1.25-0.69-3.03,0.57-3.96s3.03-0.69,3.96,0.57l6.91,9.22c2.05,2.74,5.94,3.29,8.68,1.24c0.47-0.35,0.89-0.77,1.24-1.24
	l6.9-9.22c0.94-1.25,2.71-1.5,3.96-0.57s1.5,2.71,0.57,3.96c0,0-10.22,13.2-10.58,13.48c-1.44,1.07-1.73,3.11-0.66,4.55
	c0,0,0.01,0.01,0.01,0.01l1.25,1.67c0.41,0.55,0.63,1.22,0.63,1.91v2.08c0.01,0.1,0.01,0.19,0,0.29v20h5.26c0-9.44,0-14.71,0-17.33
	c0.01-0.91-0.29-1.79-0.83-2.52l-5.24-7c-0.61-0.82-0.44-1.98,0.38-2.59c0.1-0.07,0.21-0.14,0.32-0.19
	c0.81-0.36,1.77-0.11,2.29,0.61l4.47,6c1.3,1.79,3.8,2.18,5.59,0.88c0.34-0.25,0.64-0.54,0.88-0.88L429.05,305.05z M442.83,279.82
	c3.13-0.01,5.67,2.53,5.68,5.66c0.01,3.13-2.53,5.67-5.66,5.68c-3.13,0.01-5.67-2.53-5.68-5.66c0-0.01,0-0.01,0-0.02
	C437.17,282.35,439.7,279.82,442.83,279.82L442.83,279.82z M387,214.66l5.14-5.12c1.05-1.08,2.78-1.12,3.86-0.07
	c1.08,1.05,1.12,2.78,0.07,3.86c-0.03,0.03-0.05,0.05-0.08,0.08l-5.14,5.12c-1.09,1.04-2.82,1-3.86-0.09
	C385.98,217.38,385.98,215.71,387,214.66z M368.9,202.21c0-1.51,1.22-2.73,2.73-2.73c1.51,0,2.73,1.22,2.73,2.73c0,0,0,0.01,0,0.01
	v7.24c0,1.51-1.23,2.73-2.73,2.73c-1.5,0-2.72-1.22-2.73-2.73V202.21z M347.26,209.54c1.07-1.07,2.79-1.07,3.86,0l5.14,5.12
	c1.07,1.07,1.07,2.79,0,3.86c-0.51,0.52-1.2,0.81-1.93,0.8c-0.72,0-1.42-0.28-1.93-0.79l-5.14-5.12c-1.06-1.07-1.05-2.81,0.02-3.87
	L347.26,209.54z M337.17,233.84c0-1.51,1.22-2.73,2.73-2.73l0,0h7.26c1.51,0,2.73,1.22,2.73,2.73c0,1.51-1.22,2.73-2.73,2.73h-7.26
	c-1.5-0.01-2.71-1.23-2.71-2.73L337.17,233.84z M356.28,253l-5.14,5.12c-0.51,0.51-1.21,0.79-1.93,0.79
	c-0.73,0.01-1.42-0.28-1.93-0.8c-1.07-1.07-1.07-2.79,0-3.86l5.14-5.12c1.07-1.07,2.8-1.06,3.86,0.01S357.35,251.93,356.28,253
	L356.28,253z M374.38,265.45c-0.09,1.51-1.39,2.66-2.9,2.57c-1.38-0.08-2.49-1.19-2.57-2.57v-7.24c-0.09-1.51,1.06-2.81,2.57-2.9
	c1.51-0.09,2.81,1.06,2.9,2.57c0.01,0.11,0.01,0.22,0,0.33V265.45z M371.65,249.52c-8.67,0-15.7-7.03-15.7-15.7s7.03-15.7,15.7-15.7
	c8.67,0,15.7,7.03,15.7,15.7c0,8.67-7.03,15.71-15.7,15.72V249.52z M396,258.13c-1.07,1.06-2.79,1.06-3.86,0L387,253
	c-1.09-1.04-1.13-2.77-0.09-3.86c1.04-1.09,2.77-1.13,3.86-0.09c0.03,0.03,0.05,0.05,0.08,0.08l5.14,5.12
	c1.07,1.06,1.09,2.79,0.03,3.86C396.01,258.12,396.01,258.12,396,258.13z M396.09,236.57c-1.51,0-2.73-1.22-2.73-2.73
	c0-1.51,1.22-2.73,2.73-2.73h7.27c1.51,0,2.73,1.22,2.73,2.73c0,1.51-1.22,2.73-2.73,2.73H396.09z M408.77,291.15
	c-3.13,0-5.67-2.54-5.67-5.67s2.54-5.67,5.67-5.67c3.13,0,5.67,2.54,5.67,5.67c0,3.12-2.53,5.66-5.65,5.67L408.77,291.15z
	 M422.1,302.21c-0.01-2.04,1.65-3.7,3.69-3.71c2.04-0.01,3.7,1.65,3.71,3.69c0.01,2.04-1.65,3.7-3.69,3.71c-0.01,0-0.01,0-0.02,0
	c-2.03-0.02-3.66-1.66-3.67-3.69L422.1,302.21z"/>
<rect x="302.51" y="311.21" class="st0" width="6.65" height="10.06"/>
<rect x="302.51" y="292.26" class="st0" width="6.65" height="10.06"/>
<rect x="330.5" y="311.21" class="st0" width="6.65" height="10.06"/>
<rect x="346.24" y="311.21" class="st0" width="6.65" height="10.06"/>
<rect x="346.24" y="292.26" class="st0" width="6.65" height="10.06"/>
<rect x="330.5" y="292.26" class="st0" width="6.65" height="10.06"/>
<path class="st0" d="M217,215.42c-30.3,29.67-47.72,70.06-48.5,112.46l11.39,0.21c1.52-81.75,68.48-147.78,150.58-147.78
	s149.06,66,150.59,147.78l11.38-0.21c-1.59-89.39-75.35-160.56-164.73-158.97C286.2,169.64,246.57,186.3,217,215.42z"/>
<path class="st0" d="M327.38,91.71V65C182.05,65,64.24,182.76,64.24,328.09H91C91,197.54,196.83,91.71,327.38,91.71z"/>
<path class="st0" d="M327.38,145.23v-26.76c-115.77,0-209.62,93.85-209.62,209.62h26.76C144.52,227.1,226.39,145.23,327.38,145.23z"
	/>
<path class="st0" d="M426.76,320.55c-0.16-0.53-0.72-0.82-1.25-0.66c-0.31,0.1-0.56,0.34-0.66,0.66v7.54h1.91V320.55z"/>
<path class="st0" d="M441.36,313.67v14.42h2.92v-14.42c0-0.81-0.65-1.46-1.46-1.46C442.01,312.21,441.36,312.86,441.36,313.67
	L441.36,313.67z"/>
<path class="st0" d="M235.05,301.94c-1.05,0-1.9,0.85-1.9,1.9V319c0.62,0.06,1.26,0.09,1.9,0.09s1.27,0,1.9-0.09v-15.16
	C236.95,302.79,236.1,301.94,235.05,301.94z"/>
<path class="st0" d="M410.24,313.67c0-0.81-0.65-1.46-1.46-1.46c-0.81,0-1.46,0.65-1.46,1.46l0,0v14.42h2.92V313.67z"/>
<path class="st0" d="M64.24,454.73h2.7v16.88h23.34v-16.88H93v36.47h-2.72v-17.09H66.94v17.09h-2.7L64.24,454.73z"/>
<path class="st0" d="M143.74,454.47h2.6l17,36.73h-3l-4.62-10.2h-21.51l-4.64,10.21h-2.81L143.74,454.47z M154.58,478.54l-9.58-21.1
	l-9.64,21.1H154.58z"/>
<path class="st0" d="M197.09,454.73h2.55l14.64,21.57l14.64-21.57h2.55v36.47h-2.7v-31.67l-14.44,21h-0.2l-14.43-21v31.67h-2.61
	L197.09,454.73z"/>
<path class="st0" d="M268.36,454.73h15.06c7.14,0,11.83,3.55,11.83,9.07c0,4.95-3.23,7.45-6.2,8.65c4.37,1.14,8.23,3.64,8.23,8.8
	c0,6.1-5.21,9.95-13.08,9.95h-15.84V454.73z M283.11,471.56c5.47,0,9.37-2.66,9.37-7.61c0-4-3.28-6.72-9.11-6.72h-12.3v14.33H283.11
	z M284.31,488.7c6.25,0,10.21-2.86,10.21-7.55c0-4.48-3.91-7.09-11.1-7.09h-12.35v14.64H284.31z"/>
<path class="st0" d="M331.46,476v-21.27h2.71v21c0,8.6,4.63,13.55,12.34,13.55c7.4,0,12.14-4.48,12.14-13.29v-21.26h2.71v21
	c0,10.47-6.09,16-14.95,16S331.46,486.25,331.46,476z"/>
<path class="st0" d="M397.68,454.73H413c4.48,0,8.08,1.41,10.27,3.6c1.78,1.84,2.76,4.31,2.73,6.87c0,6.1-4.54,9.59-10.68,10.42
	l12,15.58h-3.44l-11.61-15.11h-11.88v15.11h-2.71L397.68,454.73z M412.68,473.64c6.1,0,10.63-3.07,10.63-8.44c0-4.89-3.86-8-10.47-8
	h-12.45v16.41L412.68,473.64z"/>
<path class="st0" d="M459.78,473c0-9.85,7.14-18.86,18-18.86c4.89-0.17,9.66,1.54,13.33,4.79l-1.77,2
	c-3.18-2.95-7.39-4.52-11.72-4.37c-8.86,0-15.06,7.5-15.06,16.41c0,9.43,5.89,16.46,15.63,16.46c4.23-0.04,8.33-1.51,11.62-4.17
	v-10.47h-12.16v-2.5h14.79v14.07c-3.96,3.49-9.04,5.43-14.32,5.47C466.6,491.83,459.78,483.33,459.78,473z"/>
</svg>
